# xmcd
#
# Track frame offsets: 
#        150
#        18215
#        36370
#        55851
#        90232
#        109136
#        126086
#        145042
#        164274
#        185220
#        212082
#
# Disc length: 2995 seconds
#
# Revision: 0
# Processed by: cddbd v1.5.2PL0 Copyright (c) Steve Scherf et al.
# Submitted via: ExactAudioCopy v1.3
#
DISCID=920bb10b
DTITLE=Dawn Barham - Dodging Shadows
DYEAR=2000
DGENRE=Blues
TTITLE0=Sunday Morning Blues
TTITLE1=I'll Be Gone
TTITLE2=This Beats That
TTITLE3=The Redemption Song
TTITLE4=Murff Row
TTITLE5=Dodging Shadows
TTITLE6=Surely Enough (Mitzi's Song)
TTITLE7=No Highway Blues
TTITLE8=Loving You Blind
TTITLE9=Leave Me Alone
TTITLE10=Born Again (Redemption Revisited)
EXTD=
EXTT0=
EXTT1=
EXTT2=
EXTT3=
EXTT4=
EXTT5=
EXTT6=
EXTT7=
EXTT8=
EXTT9=
EXTT10=
PLAYORDER=
